<?xml version="1.0" encoding="UTF-8" standalone="no"?>
<!DOCTYPE svg PUBLIC "-//W3C//DTD SVG 1.1//EN"
 "http://www.w3.org/Graphics/SVG/1.1/DTD/svg11.dtd">
<!-- Generated by graphviz version 2.38.0 (20140413.2041)
 -->
<!-- Title: controllers_diagram Pages: 1 -->
<svg width="1119pt" height="851pt"
 viewBox="0.00 0.00 1119.16 850.61" xmlns="http://www.w3.org/2000/svg" xmlns:xlink="http://www.w3.org/1999/xlink">
<g id="graph0" class="graph" transform="scale(1 1) rotate(0) translate(487.164 432.425)">
<title>controllers_diagram</title>
<polygon fill="none" stroke="none" points="-487.164,418.186 -487.164,-432.425 632,-432.425 632,418.186 -487.164,418.186"/>
<!-- _diagram_info -->
<g id="node1" class="node"><title>_diagram_info</title>
<text text-anchor="start" x="422" y="-270.6" font-family="Times,serif" font-size="13.00">Controllers diagram</text>
<text text-anchor="start" x="422" y="-256.6" font-family="Times,serif" font-size="13.00">Date: Oct 24 2015 &#45; 12:08</text>
<text text-anchor="start" x="422" y="-242.6" font-family="Times,serif" font-size="13.00">Migration version: 20151024065353</text>
<text text-anchor="start" x="422" y="-228.6" font-family="Times,serif" font-size="13.00">Generated by RailRoady 1.4.0</text>
<text text-anchor="start" x="422" y="-214.6" font-family="Times,serif" font-size="13.00">http://railroady.prestonlee.com</text>
</g>
<!-- ApplicationController -->
<g id="node2" class="node"><title>ApplicationController</title>
<path fill="none" stroke="black" d="M-83.7443,-207.362C-83.7443,-207.362 28.2557,-207.362 28.2557,-207.362 34.2557,-207.362 40.2557,-213.362 40.2557,-219.362 40.2557,-219.362 40.2557,-289.362 40.2557,-289.362 40.2557,-295.362 34.2557,-301.362 28.2557,-301.362 28.2557,-301.362 -83.7443,-301.362 -83.7443,-301.362 -89.7443,-301.362 -95.7443,-295.362 -95.7443,-289.362 -95.7443,-289.362 -95.7443,-219.362 -95.7443,-219.362 -95.7443,-213.362 -89.7443,-207.362 -83.7443,-207.362"/>
<text text-anchor="middle" x="-27.7443" y="-286.162" font-family="Times,serif" font-size="14.00">ApplicationController</text>
<polyline fill="none" stroke="black" points="-95.7443,-278.362 40.2557,-278.362 "/>
<polyline fill="none" stroke="black" points="-95.7443,-254.362 40.2557,-254.362 "/>
<polyline fill="none" stroke="black" points="-95.7443,-230.362 40.2557,-230.362 "/>
<text text-anchor="start" x="-87.7443" y="-215.162" font-family="Times,serif" font-size="14.00">_layout</text>
</g>
<!-- HomeController -->
<g id="node3" class="node"><title>HomeController</title>
<path fill="none" stroke="black" d="M233.111,-222.729C233.111,-222.729 315.111,-222.729 315.111,-222.729 321.111,-222.729 327.111,-228.729 327.111,-234.729 327.111,-234.729 327.111,-303.729 327.111,-303.729 327.111,-309.729 321.111,-315.729 315.111,-315.729 315.111,-315.729 233.111,-315.729 233.111,-315.729 227.111,-315.729 221.111,-309.729 221.111,-303.729 221.111,-303.729 221.111,-234.729 221.111,-234.729 221.111,-228.729 227.111,-222.729 233.111,-222.729"/>
<text text-anchor="middle" x="274.111" y="-300.529" font-family="Times,serif" font-size="14.00">HomeController</text>
<polyline fill="none" stroke="black" points="221.111,-292.729 327.111,-292.729 "/>
<text text-anchor="start" x="229.111" y="-277.529" font-family="Times,serif" font-size="14.00">index</text>
<polyline fill="none" stroke="black" points="221.111,-269.729 327.111,-269.729 "/>
<polyline fill="none" stroke="black" points="221.111,-245.729 327.111,-245.729 "/>
<text text-anchor="start" x="229.111" y="-230.529" font-family="Times,serif" font-size="14.00">_layout</text>
</g>
<!-- ApplicationController&#45;&gt;HomeController -->
<g id="edge1" class="edge"><title>ApplicationController&#45;&gt;HomeController</title>
<path fill="none" stroke="black" d="M40.3744,-257.717C94.9744,-260.406 170.516,-264.127 220.777,-266.602"/>
</g>
<!-- DeviseController -->
<g id="node4" class="node"><title>DeviseController</title>
<path fill="none" stroke="black" d="M-114.489,234.552C-114.489,234.552 52.5114,234.552 52.5114,234.552 58.5114,234.552 64.5114,228.552 64.5114,222.552 64.5114,222.552 64.5114,-130.448 64.5114,-130.448 64.5114,-136.448 58.5114,-142.448 52.5114,-142.448 52.5114,-142.448 -114.489,-142.448 -114.489,-142.448 -120.489,-142.448 -126.489,-136.448 -126.489,-130.448 -126.489,-130.448 -126.489,222.552 -126.489,222.552 -126.489,228.552 -120.489,234.552 -114.489,234.552"/>
<text text-anchor="middle" x="-30.9886" y="-127.248" font-family="Times,serif" font-size="14.00">DeviseController</text>
<polyline fill="none" stroke="black" points="-126.489,-119.448 64.5114,-119.448 "/>
<text text-anchor="start" x="-118.489" y="-104.248" font-family="Times,serif" font-size="14.00">_prefixes</text>
<polyline fill="none" stroke="black" points="-126.489,-96.4476 64.5114,-96.4476 "/>
<text text-anchor="start" x="-118.489" y="-81.2476" font-family="Times,serif" font-size="14.00">assert_is_devise_resource!</text>
<text text-anchor="start" x="-118.489" y="-66.2476" font-family="Times,serif" font-size="14.00">clean_up_passwords</text>
<text text-anchor="start" x="-118.489" y="-51.2476" font-family="Times,serif" font-size="14.00">devise_i18n_options</text>
<text text-anchor="start" x="-118.489" y="-36.2476" font-family="Times,serif" font-size="14.00">devise_mapping</text>
<text text-anchor="start" x="-118.489" y="-21.2476" font-family="Times,serif" font-size="14.00">find_message</text>
<text text-anchor="start" x="-118.489" y="-6.24757" font-family="Times,serif" font-size="14.00">navigational_formats</text>
<text text-anchor="start" x="-118.489" y="8.75243" font-family="Times,serif" font-size="14.00">require_no_authentication</text>
<text text-anchor="start" x="-118.489" y="23.7524" font-family="Times,serif" font-size="14.00">resource</text>
<text text-anchor="start" x="-118.489" y="38.7524" font-family="Times,serif" font-size="14.00">resource=</text>
<text text-anchor="start" x="-118.489" y="53.7524" font-family="Times,serif" font-size="14.00">resource_class</text>
<text text-anchor="start" x="-118.489" y="68.7524" font-family="Times,serif" font-size="14.00">resource_name</text>
<text text-anchor="start" x="-118.489" y="83.7524" font-family="Times,serif" font-size="14.00">resource_params</text>
<text text-anchor="start" x="-118.489" y="98.7524" font-family="Times,serif" font-size="14.00">respond_with_navigational</text>
<text text-anchor="start" x="-118.489" y="113.752" font-family="Times,serif" font-size="14.00">scope_name</text>
<text text-anchor="start" x="-118.489" y="128.752" font-family="Times,serif" font-size="14.00">set_flash_message</text>
<text text-anchor="start" x="-118.489" y="143.752" font-family="Times,serif" font-size="14.00">set_minimum_password_length</text>
<text text-anchor="start" x="-118.489" y="158.752" font-family="Times,serif" font-size="14.00">signed_in_resource</text>
<text text-anchor="start" x="-118.489" y="173.752" font-family="Times,serif" font-size="14.00">successfully_sent?</text>
<text text-anchor="start" x="-118.489" y="188.752" font-family="Times,serif" font-size="14.00">translation_scope</text>
<text text-anchor="start" x="-118.489" y="203.752" font-family="Times,serif" font-size="14.00">unknown_action!</text>
<polyline fill="none" stroke="black" points="-126.489,211.552 64.5114,211.552 "/>
<text text-anchor="start" x="-118.489" y="226.752" font-family="Times,serif" font-size="14.00">_layout</text>
</g>
<!-- ApplicationController&#45;&gt;DeviseController -->
<g id="edge2" class="edge"><title>ApplicationController&#45;&gt;DeviseController</title>
<path fill="none" stroke="black" d="M-28.2548,-207.092C-28.4537,-188.668 -28.6957,-166.263 -28.9525,-142.485"/>
</g>
<!-- Devise::RegistrationsController -->
<g id="node5" class="node"><title>Devise::RegistrationsController</title>
<path fill="none" stroke="black" d="M-414.764,-110.925C-414.764,-110.925 -245.764,-110.925 -245.764,-110.925 -239.764,-110.925 -233.764,-116.925 -233.764,-122.925 -233.764,-122.925 -233.764,-415.925 -233.764,-415.925 -233.764,-421.925 -239.764,-427.925 -245.764,-427.925 -245.764,-427.925 -414.764,-427.925 -414.764,-427.925 -420.764,-427.925 -426.764,-421.925 -426.764,-415.925 -426.764,-415.925 -426.764,-122.925 -426.764,-122.925 -426.764,-116.925 -420.764,-110.925 -414.764,-110.925"/>
<text text-anchor="middle" x="-330.264" y="-412.725" font-family="Times,serif" font-size="14.00">Devise::RegistrationsController</text>
<polyline fill="none" stroke="black" points="-426.764,-404.925 -233.764,-404.925 "/>
<text text-anchor="start" x="-418.764" y="-389.725" font-family="Times,serif" font-size="14.00">cancel</text>
<text text-anchor="start" x="-418.764" y="-374.725" font-family="Times,serif" font-size="14.00">create</text>
<text text-anchor="start" x="-418.764" y="-359.725" font-family="Times,serif" font-size="14.00">destroy</text>
<text text-anchor="start" x="-418.764" y="-344.725" font-family="Times,serif" font-size="14.00">edit</text>
<text text-anchor="start" x="-418.764" y="-329.725" font-family="Times,serif" font-size="14.00">new</text>
<text text-anchor="start" x="-418.764" y="-314.725" font-family="Times,serif" font-size="14.00">update</text>
<polyline fill="none" stroke="black" points="-426.764,-306.925 -233.764,-306.925 "/>
<text text-anchor="start" x="-418.764" y="-291.725" font-family="Times,serif" font-size="14.00">account_update_params</text>
<text text-anchor="start" x="-418.764" y="-276.725" font-family="Times,serif" font-size="14.00">after_inactive_sign_up_path_for</text>
<text text-anchor="start" x="-418.764" y="-261.725" font-family="Times,serif" font-size="14.00">after_sign_up_path_for</text>
<text text-anchor="start" x="-418.764" y="-246.725" font-family="Times,serif" font-size="14.00">after_update_path_for</text>
<text text-anchor="start" x="-418.764" y="-231.725" font-family="Times,serif" font-size="14.00">authenticate_scope!</text>
<text text-anchor="start" x="-418.764" y="-216.725" font-family="Times,serif" font-size="14.00">build_resource</text>
<text text-anchor="start" x="-418.764" y="-201.725" font-family="Times,serif" font-size="14.00">sign_up</text>
<text text-anchor="start" x="-418.764" y="-186.725" font-family="Times,serif" font-size="14.00">sign_up_params</text>
<text text-anchor="start" x="-418.764" y="-171.725" font-family="Times,serif" font-size="14.00">translation_scope</text>
<text text-anchor="start" x="-418.764" y="-156.725" font-family="Times,serif" font-size="14.00">update_needs_confirmation?</text>
<text text-anchor="start" x="-418.764" y="-141.725" font-family="Times,serif" font-size="14.00">update_resource</text>
<polyline fill="none" stroke="black" points="-426.764,-133.925 -233.764,-133.925 "/>
<text text-anchor="start" x="-418.764" y="-118.725" font-family="Times,serif" font-size="14.00">_layout</text>
</g>
<!-- DeviseController&#45;&gt;Devise::RegistrationsController -->
<g id="edge3" class="edge"><title>DeviseController&#45;&gt;Devise::RegistrationsController</title>
<path fill="none" stroke="black" d="M-126.504,-54.6341C-160.717,-90.6993 -199.293,-131.363 -233.602,-167.53"/>
</g>
<!-- Devise::SessionsController -->
<g id="node6" class="node"><title>Devise::SessionsController</title>
<path fill="none" stroke="black" d="M202.772,125.06C202.772,125.06 342.772,125.06 342.772,125.06 348.772,125.06 354.772,119.06 354.772,113.06 354.772,113.06 354.772,-74.9403 354.772,-74.9403 354.772,-80.9403 348.772,-86.9403 342.772,-86.9403 342.772,-86.9403 202.772,-86.9403 202.772,-86.9403 196.772,-86.9403 190.772,-80.9403 190.772,-74.9403 190.772,-74.9403 190.772,113.06 190.772,113.06 190.772,119.06 196.772,125.06 202.772,125.06"/>
<text text-anchor="middle" x="272.772" y="-71.7403" font-family="Times,serif" font-size="14.00">Devise::SessionsController</text>
<polyline fill="none" stroke="black" points="190.772,-63.9403 354.772,-63.9403 "/>
<text text-anchor="start" x="198.772" y="-48.7403" font-family="Times,serif" font-size="14.00">create</text>
<text text-anchor="start" x="198.772" y="-33.7403" font-family="Times,serif" font-size="14.00">destroy</text>
<text text-anchor="start" x="198.772" y="-18.7403" font-family="Times,serif" font-size="14.00">new</text>
<polyline fill="none" stroke="black" points="190.772,-10.9403 354.772,-10.9403 "/>
<text text-anchor="start" x="198.772" y="4.25971" font-family="Times,serif" font-size="14.00">auth_options</text>
<text text-anchor="start" x="198.772" y="19.2597" font-family="Times,serif" font-size="14.00">serialize_options</text>
<text text-anchor="start" x="198.772" y="34.2597" font-family="Times,serif" font-size="14.00">sign_in_params</text>
<text text-anchor="start" x="198.772" y="49.2597" font-family="Times,serif" font-size="14.00">translation_scope</text>
<polyline fill="none" stroke="black" points="190.772,57.0597 354.772,57.0597 "/>
<text text-anchor="start" x="198.772" y="72.2597" font-family="Times,serif" font-size="14.00">_layout</text>
<text text-anchor="start" x="198.772" y="87.2597" font-family="Times,serif" font-size="14.00">all_signed_out?</text>
<text text-anchor="start" x="198.772" y="102.26" font-family="Times,serif" font-size="14.00">respond_to_on_destroy</text>
<text text-anchor="start" x="198.772" y="117.26" font-family="Times,serif" font-size="14.00">verify_signed_out_user</text>
</g>
<!-- DeviseController&#45;&gt;Devise::SessionsController -->
<g id="edge4" class="edge"><title>DeviseController&#45;&gt;Devise::SessionsController</title>
<path fill="none" stroke="black" d="M64.7062,37.5488C105.139,33.9559 151.755,29.8135 190.602,26.3615"/>
</g>
<!-- Devise::UnlocksController -->
<g id="node7" class="node"><title>Devise::UnlocksController</title>
<path fill="none" stroke="black" d="M-448.694,95.0607C-448.694,95.0607 -216.694,95.0607 -216.694,95.0607 -210.694,95.0607 -204.694,89.0607 -204.694,83.0607 -204.694,83.0607 -204.694,-44.9393 -204.694,-44.9393 -204.694,-50.9393 -210.694,-56.9393 -216.694,-56.9393 -216.694,-56.9393 -448.694,-56.9393 -448.694,-56.9393 -454.694,-56.9393 -460.694,-50.9393 -460.694,-44.9393 -460.694,-44.9393 -460.694,83.0607 -460.694,83.0607 -460.694,89.0607 -454.694,95.0607 -448.694,95.0607"/>
<text text-anchor="middle" x="-332.694" y="-41.7393" font-family="Times,serif" font-size="14.00">Devise::UnlocksController</text>
<polyline fill="none" stroke="black" points="-460.694,-33.9393 -204.694,-33.9393 "/>
<text text-anchor="start" x="-452.694" y="-18.7393" font-family="Times,serif" font-size="14.00">create</text>
<text text-anchor="start" x="-452.694" y="-3.73929" font-family="Times,serif" font-size="14.00">new</text>
<text text-anchor="start" x="-452.694" y="11.2607" font-family="Times,serif" font-size="14.00">show</text>
<polyline fill="none" stroke="black" points="-460.694,19.0607 -204.694,19.0607 "/>
<text text-anchor="start" x="-452.694" y="34.2607" font-family="Times,serif" font-size="14.00">after_sending_unlock_instructions_path_for</text>
<text text-anchor="start" x="-452.694" y="49.2607" font-family="Times,serif" font-size="14.00">after_unlock_path_for</text>
<text text-anchor="start" x="-452.694" y="64.2607" font-family="Times,serif" font-size="14.00">translation_scope</text>
<polyline fill="none" stroke="black" points="-460.694,72.0607 -204.694,72.0607 "/>
<text text-anchor="start" x="-452.694" y="87.2607" font-family="Times,serif" font-size="14.00">_layout</text>
</g>
<!-- DeviseController&#45;&gt;Devise::UnlocksController -->
<g id="edge5" class="edge"><title>DeviseController&#45;&gt;Devise::UnlocksController</title>
<path fill="none" stroke="black" d="M-126.865,37.475C-151.539,35.2676 -178.486,32.8567 -204.512,30.5283"/>
</g>
<!-- Devise::PasswordsController -->
<g id="node8" class="node"><title>Devise::PasswordsController</title>
<path fill="none" stroke="black" d="M-471.164,413.686C-471.164,413.686 -193.164,413.686 -193.164,413.686 -187.164,413.686 -181.164,407.686 -181.164,401.686 -181.164,401.686 -181.164,228.686 -181.164,228.686 -181.164,222.686 -187.164,216.686 -193.164,216.686 -193.164,216.686 -471.164,216.686 -471.164,216.686 -477.164,216.686 -483.164,222.686 -483.164,228.686 -483.164,228.686 -483.164,401.686 -483.164,401.686 -483.164,407.686 -477.164,413.686 -471.164,413.686"/>
<text text-anchor="middle" x="-332.164" y="231.886" font-family="Times,serif" font-size="14.00">Devise::PasswordsController</text>
<polyline fill="none" stroke="black" points="-483.164,239.686 -181.164,239.686 "/>
<text text-anchor="start" x="-475.164" y="254.886" font-family="Times,serif" font-size="14.00">create</text>
<text text-anchor="start" x="-475.164" y="269.886" font-family="Times,serif" font-size="14.00">edit</text>
<text text-anchor="start" x="-475.164" y="284.886" font-family="Times,serif" font-size="14.00">new</text>
<text text-anchor="start" x="-475.164" y="299.886" font-family="Times,serif" font-size="14.00">update</text>
<polyline fill="none" stroke="black" points="-483.164,307.686 -181.164,307.686 "/>
<text text-anchor="start" x="-475.164" y="322.886" font-family="Times,serif" font-size="14.00">after_resetting_password_path_for</text>
<text text-anchor="start" x="-475.164" y="337.886" font-family="Times,serif" font-size="14.00">after_sending_reset_password_instructions_path_for</text>
<text text-anchor="start" x="-475.164" y="352.886" font-family="Times,serif" font-size="14.00">assert_reset_token_passed</text>
<text text-anchor="start" x="-475.164" y="367.886" font-family="Times,serif" font-size="14.00">translation_scope</text>
<text text-anchor="start" x="-475.164" y="382.886" font-family="Times,serif" font-size="14.00">unlockable?</text>
<polyline fill="none" stroke="black" points="-483.164,390.686 -181.164,390.686 "/>
<text text-anchor="start" x="-475.164" y="405.886" font-family="Times,serif" font-size="14.00">_layout</text>
</g>
<!-- DeviseController&#45;&gt;Devise::PasswordsController -->
<g id="edge6" class="edge"><title>DeviseController&#45;&gt;Devise::PasswordsController</title>
<path fill="none" stroke="black" d="M-126.696,131.578C-156.925,158.591 -190.572,188.658 -221.742,216.511"/>
</g>
<!-- Devise::OmniauthCallbacksController -->
<g id="node9" class="node"><title>Devise::OmniauthCallbacksController</title>
<path fill="none" stroke="black" d="M-127.619,405.524C-127.619,405.524 73.3809,405.524 73.3809,405.524 79.3809,405.524 85.3809,399.524 85.3809,393.524 85.3809,393.524 85.3809,265.524 85.3809,265.524 85.3809,259.524 79.3809,253.524 73.3809,253.524 73.3809,253.524 -127.619,253.524 -127.619,253.524 -133.619,253.524 -139.619,259.524 -139.619,265.524 -139.619,265.524 -139.619,393.524 -139.619,393.524 -139.619,399.524 -133.619,405.524 -127.619,405.524"/>
<text text-anchor="middle" x="-27.1191" y="268.724" font-family="Times,serif" font-size="14.00">Devise::OmniauthCallbacksController</text>
<polyline fill="none" stroke="black" points="-139.619,276.524 85.3809,276.524 "/>
<text text-anchor="start" x="-131.619" y="291.724" font-family="Times,serif" font-size="14.00">failure</text>
<text text-anchor="start" x="-131.619" y="306.724" font-family="Times,serif" font-size="14.00">passthru</text>
<polyline fill="none" stroke="black" points="-139.619,314.524 85.3809,314.524 "/>
<text text-anchor="start" x="-131.619" y="329.724" font-family="Times,serif" font-size="14.00">after_omniauth_failure_path_for</text>
<text text-anchor="start" x="-131.619" y="344.724" font-family="Times,serif" font-size="14.00">failed_strategy</text>
<text text-anchor="start" x="-131.619" y="359.724" font-family="Times,serif" font-size="14.00">failure_message</text>
<text text-anchor="start" x="-131.619" y="374.724" font-family="Times,serif" font-size="14.00">translation_scope</text>
<polyline fill="none" stroke="black" points="-139.619,382.524 85.3809,382.524 "/>
<text text-anchor="start" x="-131.619" y="397.724" font-family="Times,serif" font-size="14.00">_layout</text>
</g>
<!-- DeviseController&#45;&gt;Devise::OmniauthCallbacksController -->
<g id="edge7" class="edge"><title>DeviseController&#45;&gt;Devise::OmniauthCallbacksController</title>
<path fill="none" stroke="black" d="M-28.413,234.738C-28.3253,241.158 -28.2396,247.434 -28.1568,253.503"/>
</g>
<!-- Devise::ConfirmationsController -->
<g id="node10" class="node"><title>Devise::ConfirmationsController</title>
<path fill="none" stroke="black" d="M138.293,390.665C138.293,390.665 414.293,390.665 414.293,390.665 420.293,390.665 426.293,384.665 426.293,378.665 426.293,378.665 426.293,250.665 426.293,250.665 426.293,244.665 420.293,238.665 414.293,238.665 414.293,238.665 138.293,238.665 138.293,238.665 132.293,238.665 126.293,244.665 126.293,250.665 126.293,250.665 126.293,378.665 126.293,378.665 126.293,384.665 132.293,390.665 138.293,390.665"/>
<text text-anchor="middle" x="276.293" y="253.865" font-family="Times,serif" font-size="14.00">Devise::ConfirmationsController</text>
<polyline fill="none" stroke="black" points="126.293,261.665 426.293,261.665 "/>
<text text-anchor="start" x="134.293" y="276.865" font-family="Times,serif" font-size="14.00">create</text>
<text text-anchor="start" x="134.293" y="291.865" font-family="Times,serif" font-size="14.00">new</text>
<text text-anchor="start" x="134.293" y="306.865" font-family="Times,serif" font-size="14.00">show</text>
<polyline fill="none" stroke="black" points="126.293,314.665 426.293,314.665 "/>
<text text-anchor="start" x="134.293" y="329.865" font-family="Times,serif" font-size="14.00">after_confirmation_path_for</text>
<text text-anchor="start" x="134.293" y="344.865" font-family="Times,serif" font-size="14.00">after_resending_confirmation_instructions_path_for</text>
<text text-anchor="start" x="134.293" y="359.865" font-family="Times,serif" font-size="14.00">translation_scope</text>
<polyline fill="none" stroke="black" points="126.293,367.665 426.293,367.665 "/>
<text text-anchor="start" x="134.293" y="382.865" font-family="Times,serif" font-size="14.00">_layout</text>
</g>
<!-- DeviseController&#45;&gt;Devise::ConfirmationsController -->
<g id="edge8" class="edge"><title>DeviseController&#45;&gt;Devise::ConfirmationsController</title>
<path fill="none" stroke="black" d="M64.5528,129.571C104.369,164.376 150.29,204.519 189.169,238.505"/>
</g>
</g>
</svg>
