<?xml version="1.0" encoding="UTF-8" standalone="no"?>
<!DOCTYPE svg PUBLIC "-//W3C//DTD SVG 1.1//EN"
 "http://www.w3.org/Graphics/SVG/1.1/DTD/svg11.dtd">
<!-- Generated by graphviz version 2.38.0 (20140413.2041)
 -->
<!-- Title: models_diagram Pages: 1 -->
<svg width="2192pt" height="454pt"
 viewBox="0.00 0.00 2192.00 454.00" xmlns="http://www.w3.org/2000/svg" xmlns:xlink="http://www.w3.org/1999/xlink">
<g id="graph0" class="graph" transform="scale(1 1) rotate(0) translate(4 450)">
<title>models_diagram</title>
<polygon fill="none" stroke="none" points="-4,4 -4,-450 2188,-450 2188,4 -4,4"/>
<!-- _diagram_info -->
<g id="node1" class="node"><title>_diagram_info</title>
<text text-anchor="start" x="814" y="-431.6" font-family="Times,serif" font-size="13.00">Models diagram</text>
<text text-anchor="start" x="814" y="-417.6" font-family="Times,serif" font-size="13.00">Date: Oct 24 2015 &#45; 12:08</text>
<text text-anchor="start" x="814" y="-403.6" font-family="Times,serif" font-size="13.00">Migration version: 20151024065353</text>
<text text-anchor="start" x="814" y="-389.6" font-family="Times,serif" font-size="13.00">Generated by RailRoady 1.4.0</text>
<text text-anchor="start" x="814" y="-375.6" font-family="Times,serif" font-size="13.00">http://railroady.prestonlee.com</text>
</g>
<!-- Branch -->
<g id="node2" class="node"><title>Branch</title>
<path fill="none" stroke="black" d="M12,-60.5C12,-60.5 232,-60.5 232,-60.5 238,-60.5 244,-66.5 244,-72.5 244,-72.5 244,-259.5 244,-259.5 244,-265.5 238,-271.5 232,-271.5 232,-271.5 12,-271.5 12,-271.5 6,-271.5 0,-265.5 0,-259.5 0,-259.5 0,-72.5 0,-72.5 0,-66.5 6,-60.5 12,-60.5"/>
<text text-anchor="middle" x="122" y="-256.3" font-family="Times,serif" font-size="14.00">Branch</text>
<polyline fill="none" stroke="black" points="0,-248.5 244,-248.5 "/>
<text text-anchor="start" x="8" y="-233.3" font-family="Times,serif" font-size="14.00">id :integer</text>
<text text-anchor="start" x="8" y="-218.3" font-family="Times,serif" font-size="14.00">name :character varying</text>
<text text-anchor="start" x="8" y="-203.3" font-family="Times,serif" font-size="14.00">address :character varying</text>
<text text-anchor="start" x="8" y="-188.3" font-family="Times,serif" font-size="14.00">city :character varying</text>
<text text-anchor="start" x="8" y="-173.3" font-family="Times,serif" font-size="14.00">country :character varying</text>
<text text-anchor="start" x="8" y="-158.3" font-family="Times,serif" font-size="14.00">zip_code :integer</text>
<text text-anchor="start" x="8" y="-143.3" font-family="Times,serif" font-size="14.00">primary_phone :character varying</text>
<text text-anchor="start" x="8" y="-128.3" font-family="Times,serif" font-size="14.00">secondary_phone :character varying</text>
<text text-anchor="start" x="8" y="-113.3" font-family="Times,serif" font-size="14.00">email_address :character varying</text>
<text text-anchor="start" x="8" y="-98.3" font-family="Times,serif" font-size="14.00">factory_id :integer</text>
<text text-anchor="start" x="8" y="-83.3" font-family="Times,serif" font-size="14.00">created_at :timestamp without time zone</text>
<text text-anchor="start" x="8" y="-68.3" font-family="Times,serif" font-size="14.00">updated_at :timestamp without time zone</text>
</g>
<!-- ContractPayroll -->
<g id="node3" class="node"><title>ContractPayroll</title>
<path fill="none" stroke="black" d="M274,-83C274,-83 504,-83 504,-83 510,-83 516,-89 516,-95 516,-95 516,-237 516,-237 516,-243 510,-249 504,-249 504,-249 274,-249 274,-249 268,-249 262,-243 262,-237 262,-237 262,-95 262,-95 262,-89 268,-83 274,-83"/>
<text text-anchor="middle" x="389" y="-233.8" font-family="Times,serif" font-size="14.00">ContractPayroll</text>
<polyline fill="none" stroke="black" points="262,-226 516,-226 "/>
<text text-anchor="start" x="270" y="-210.8" font-family="Times,serif" font-size="14.00">id :integer</text>
<text text-anchor="start" x="270" y="-195.8" font-family="Times,serif" font-size="14.00">contract_start_date :date</text>
<text text-anchor="start" x="270" y="-180.8" font-family="Times,serif" font-size="14.00">description :text</text>
<text text-anchor="start" x="270" y="-165.8" font-family="Times,serif" font-size="14.00">_type :integer</text>
<text text-anchor="start" x="270" y="-150.8" font-family="Times,serif" font-size="14.00">fixed_contract_end_date :date</text>
<text text-anchor="start" x="270" y="-135.8" font-family="Times,serif" font-size="14.00">fixed_contract_amount_to_be_paid :integer</text>
<text text-anchor="start" x="270" y="-120.8" font-family="Times,serif" font-size="14.00">payroll_id :integer</text>
<text text-anchor="start" x="270" y="-105.8" font-family="Times,serif" font-size="14.00">created_at :timestamp without time zone</text>
<text text-anchor="start" x="270" y="-90.8" font-family="Times,serif" font-size="14.00">updated_at :timestamp without time zone</text>
</g>
<!-- User -->
<g id="node4" class="node"><title>User</title>
<path fill="none" stroke="black" d="M546.5,-0.5C546.5,-0.5 835.5,-0.5 835.5,-0.5 841.5,-0.5 847.5,-6.5 847.5,-12.5 847.5,-12.5 847.5,-319.5 847.5,-319.5 847.5,-325.5 841.5,-331.5 835.5,-331.5 835.5,-331.5 546.5,-331.5 546.5,-331.5 540.5,-331.5 534.5,-325.5 534.5,-319.5 534.5,-319.5 534.5,-12.5 534.5,-12.5 534.5,-6.5 540.5,-0.5 546.5,-0.5"/>
<text text-anchor="middle" x="691" y="-316.3" font-family="Times,serif" font-size="14.00">User</text>
<polyline fill="none" stroke="black" points="534.5,-308.5 847.5,-308.5 "/>
<text text-anchor="start" x="542.5" y="-293.3" font-family="Times,serif" font-size="14.00">id :integer</text>
<text text-anchor="start" x="542.5" y="-278.3" font-family="Times,serif" font-size="14.00">email :character varying</text>
<text text-anchor="start" x="542.5" y="-263.3" font-family="Times,serif" font-size="14.00">encrypted_password :character varying</text>
<text text-anchor="start" x="542.5" y="-248.3" font-family="Times,serif" font-size="14.00">reset_password_token :character varying</text>
<text text-anchor="start" x="542.5" y="-233.3" font-family="Times,serif" font-size="14.00">reset_password_sent_at :timestamp without time zone</text>
<text text-anchor="start" x="542.5" y="-218.3" font-family="Times,serif" font-size="14.00">remember_created_at :timestamp without time zone</text>
<text text-anchor="start" x="542.5" y="-203.3" font-family="Times,serif" font-size="14.00">sign_in_count :integer</text>
<text text-anchor="start" x="542.5" y="-188.3" font-family="Times,serif" font-size="14.00">current_sign_in_at :timestamp without time zone</text>
<text text-anchor="start" x="542.5" y="-173.3" font-family="Times,serif" font-size="14.00">last_sign_in_at :timestamp without time zone</text>
<text text-anchor="start" x="542.5" y="-158.3" font-family="Times,serif" font-size="14.00">current_sign_in_ip :inet</text>
<text text-anchor="start" x="542.5" y="-143.3" font-family="Times,serif" font-size="14.00">last_sign_in_ip :inet</text>
<text text-anchor="start" x="542.5" y="-128.3" font-family="Times,serif" font-size="14.00">confirmation_token :character varying</text>
<text text-anchor="start" x="542.5" y="-113.3" font-family="Times,serif" font-size="14.00">confirmed_at :timestamp without time zone</text>
<text text-anchor="start" x="542.5" y="-98.3" font-family="Times,serif" font-size="14.00">confirmation_sent_at :timestamp without time zone</text>
<text text-anchor="start" x="542.5" y="-83.3" font-family="Times,serif" font-size="14.00">unconfirmed_email :character varying</text>
<text text-anchor="start" x="542.5" y="-68.3" font-family="Times,serif" font-size="14.00">created_at :timestamp without time zone</text>
<text text-anchor="start" x="542.5" y="-53.3" font-family="Times,serif" font-size="14.00">updated_at :timestamp without time zone</text>
<text text-anchor="start" x="542.5" y="-38.3" font-family="Times,serif" font-size="14.00">admin :boolean</text>
<text text-anchor="start" x="542.5" y="-23.3" font-family="Times,serif" font-size="14.00">manager :boolean</text>
<text text-anchor="start" x="542.5" y="-8.3" font-family="Times,serif" font-size="14.00">worker :boolean</text>
</g>
<!-- PayHead -->
<g id="node5" class="node"><title>PayHead</title>
<path fill="none" stroke="black" d="M878,-90.5C878,-90.5 1098,-90.5 1098,-90.5 1104,-90.5 1110,-96.5 1110,-102.5 1110,-102.5 1110,-229.5 1110,-229.5 1110,-235.5 1104,-241.5 1098,-241.5 1098,-241.5 878,-241.5 878,-241.5 872,-241.5 866,-235.5 866,-229.5 866,-229.5 866,-102.5 866,-102.5 866,-96.5 872,-90.5 878,-90.5"/>
<text text-anchor="middle" x="988" y="-226.3" font-family="Times,serif" font-size="14.00">PayHead</text>
<polyline fill="none" stroke="black" points="866,-218.5 1110,-218.5 "/>
<text text-anchor="start" x="874" y="-203.3" font-family="Times,serif" font-size="14.00">id :integer</text>
<text text-anchor="start" x="874" y="-188.3" font-family="Times,serif" font-size="14.00">name :character varying</text>
<text text-anchor="start" x="874" y="-173.3" font-family="Times,serif" font-size="14.00">work_description :text</text>
<text text-anchor="start" x="874" y="-158.3" font-family="Times,serif" font-size="14.00">pay :integer</text>
<text text-anchor="start" x="874" y="-143.3" font-family="Times,serif" font-size="14.00">number_of_items :integer</text>
<text text-anchor="start" x="874" y="-128.3" font-family="Times,serif" font-size="14.00">contract_id :integer</text>
<text text-anchor="start" x="874" y="-113.3" font-family="Times,serif" font-size="14.00">created_at :timestamp without time zone</text>
<text text-anchor="start" x="874" y="-98.3" font-family="Times,serif" font-size="14.00">updated_at :timestamp without time zone</text>
</g>
<!-- Payroll -->
<g id="node6" class="node"><title>Payroll</title>
<path fill="none" stroke="black" d="M1140,-105.5C1140,-105.5 1360,-105.5 1360,-105.5 1366,-105.5 1372,-111.5 1372,-117.5 1372,-117.5 1372,-214.5 1372,-214.5 1372,-220.5 1366,-226.5 1360,-226.5 1360,-226.5 1140,-226.5 1140,-226.5 1134,-226.5 1128,-220.5 1128,-214.5 1128,-214.5 1128,-117.5 1128,-117.5 1128,-111.5 1134,-105.5 1140,-105.5"/>
<text text-anchor="middle" x="1250" y="-211.3" font-family="Times,serif" font-size="14.00">Payroll</text>
<polyline fill="none" stroke="black" points="1128,-203.5 1372,-203.5 "/>
<text text-anchor="start" x="1136" y="-188.3" font-family="Times,serif" font-size="14.00">id :integer</text>
<text text-anchor="start" x="1136" y="-173.3" font-family="Times,serif" font-size="14.00">_type :integer</text>
<text text-anchor="start" x="1136" y="-158.3" font-family="Times,serif" font-size="14.00">amount :integer</text>
<text text-anchor="start" x="1136" y="-143.3" font-family="Times,serif" font-size="14.00">user_id :integer</text>
<text text-anchor="start" x="1136" y="-128.3" font-family="Times,serif" font-size="14.00">created_at :timestamp without time zone</text>
<text text-anchor="start" x="1136" y="-113.3" font-family="Times,serif" font-size="14.00">updated_at :timestamp without time zone</text>
</g>
<!-- Account -->
<g id="node7" class="node"><title>Account</title>
<path fill="none" stroke="black" d="M1402,-60.5C1402,-60.5 1622,-60.5 1622,-60.5 1628,-60.5 1634,-66.5 1634,-72.5 1634,-72.5 1634,-259.5 1634,-259.5 1634,-265.5 1628,-271.5 1622,-271.5 1622,-271.5 1402,-271.5 1402,-271.5 1396,-271.5 1390,-265.5 1390,-259.5 1390,-259.5 1390,-72.5 1390,-72.5 1390,-66.5 1396,-60.5 1402,-60.5"/>
<text text-anchor="middle" x="1512" y="-256.3" font-family="Times,serif" font-size="14.00">Account</text>
<polyline fill="none" stroke="black" points="1390,-248.5 1634,-248.5 "/>
<text text-anchor="start" x="1398" y="-233.3" font-family="Times,serif" font-size="14.00">id :integer</text>
<text text-anchor="start" x="1398" y="-218.3" font-family="Times,serif" font-size="14.00">title :character varying</text>
<text text-anchor="start" x="1398" y="-203.3" font-family="Times,serif" font-size="14.00">description :text</text>
<text text-anchor="start" x="1398" y="-188.3" font-family="Times,serif" font-size="14.00">_type :integer</text>
<text text-anchor="start" x="1398" y="-173.3" font-family="Times,serif" font-size="14.00">bank_account_number :character varying</text>
<text text-anchor="start" x="1398" y="-158.3" font-family="Times,serif" font-size="14.00">bank_name :character varying</text>
<text text-anchor="start" x="1398" y="-143.3" font-family="Times,serif" font-size="14.00">bank_address :text</text>
<text text-anchor="start" x="1398" y="-128.3" font-family="Times,serif" font-size="14.00">bank_city :character varying</text>
<text text-anchor="start" x="1398" y="-113.3" font-family="Times,serif" font-size="14.00">current_balance :integer</text>
<text text-anchor="start" x="1398" y="-98.3" font-family="Times,serif" font-size="14.00">user_id :integer</text>
<text text-anchor="start" x="1398" y="-83.3" font-family="Times,serif" font-size="14.00">created_at :timestamp without time zone</text>
<text text-anchor="start" x="1398" y="-68.3" font-family="Times,serif" font-size="14.00">updated_at :timestamp without time zone</text>
</g>
<!-- Transection -->
<g id="node8" class="node"><title>Transection</title>
<path fill="none" stroke="black" d="M1664,-98C1664,-98 1884,-98 1884,-98 1890,-98 1896,-104 1896,-110 1896,-110 1896,-222 1896,-222 1896,-228 1890,-234 1884,-234 1884,-234 1664,-234 1664,-234 1658,-234 1652,-228 1652,-222 1652,-222 1652,-110 1652,-110 1652,-104 1658,-98 1664,-98"/>
<text text-anchor="middle" x="1774" y="-218.8" font-family="Times,serif" font-size="14.00">Transection</text>
<polyline fill="none" stroke="black" points="1652,-211 1896,-211 "/>
<text text-anchor="start" x="1660" y="-195.8" font-family="Times,serif" font-size="14.00">id :integer</text>
<text text-anchor="start" x="1660" y="-180.8" font-family="Times,serif" font-size="14.00">payment_type :integer</text>
<text text-anchor="start" x="1660" y="-165.8" font-family="Times,serif" font-size="14.00">description :text</text>
<text text-anchor="start" x="1660" y="-150.8" font-family="Times,serif" font-size="14.00">submitted_account_id :integer</text>
<text text-anchor="start" x="1660" y="-135.8" font-family="Times,serif" font-size="14.00">withdrawn_account_id :integer</text>
<text text-anchor="start" x="1660" y="-120.8" font-family="Times,serif" font-size="14.00">created_at :timestamp without time zone</text>
<text text-anchor="start" x="1660" y="-105.8" font-family="Times,serif" font-size="14.00">updated_at :timestamp without time zone</text>
</g>
<!-- Factory -->
<g id="node9" class="node"><title>Factory</title>
<path fill="none" stroke="black" d="M1926,-60.5C1926,-60.5 2172,-60.5 2172,-60.5 2178,-60.5 2184,-66.5 2184,-72.5 2184,-72.5 2184,-259.5 2184,-259.5 2184,-265.5 2178,-271.5 2172,-271.5 2172,-271.5 1926,-271.5 1926,-271.5 1920,-271.5 1914,-265.5 1914,-259.5 1914,-259.5 1914,-72.5 1914,-72.5 1914,-66.5 1920,-60.5 1926,-60.5"/>
<text text-anchor="middle" x="2049" y="-256.3" font-family="Times,serif" font-size="14.00">Factory</text>
<polyline fill="none" stroke="black" points="1914,-248.5 2184,-248.5 "/>
<text text-anchor="start" x="1922" y="-233.3" font-family="Times,serif" font-size="14.00">id :integer</text>
<text text-anchor="start" x="1922" y="-218.3" font-family="Times,serif" font-size="14.00">name :character varying</text>
<text text-anchor="start" x="1922" y="-203.3" font-family="Times,serif" font-size="14.00">vision :text</text>
<text text-anchor="start" x="1922" y="-188.3" font-family="Times,serif" font-size="14.00">work_description :text</text>
<text text-anchor="start" x="1922" y="-173.3" font-family="Times,serif" font-size="14.00">email :character varying</text>
<text text-anchor="start" x="1922" y="-158.3" font-family="Times,serif" font-size="14.00">password_of_factory_email :character varying</text>
<text text-anchor="start" x="1922" y="-143.3" font-family="Times,serif" font-size="14.00">primary_phone :character varying</text>
<text text-anchor="start" x="1922" y="-128.3" font-family="Times,serif" font-size="14.00">secondary_phone :character varying</text>
<text text-anchor="start" x="1922" y="-113.3" font-family="Times,serif" font-size="14.00">tax_information :text</text>
<text text-anchor="start" x="1922" y="-98.3" font-family="Times,serif" font-size="14.00">user_id :integer</text>
<text text-anchor="start" x="1922" y="-83.3" font-family="Times,serif" font-size="14.00">created_at :timestamp without time zone</text>
<text text-anchor="start" x="1922" y="-68.3" font-family="Times,serif" font-size="14.00">updated_at :timestamp without time zone</text>
</g>
<!-- ActiveRecord::Base -->
<g id="node10" class="node"><title>ActiveRecord::Base</title>
<ellipse fill="none" stroke="black" cx="1119" cy="-407" rx="81.4863" ry="18"/>
<text text-anchor="middle" x="1119" y="-403.3" font-family="Times,serif" font-size="14.00">ActiveRecord::Base</text>
</g>
<!-- ActiveRecord::Base&#45;&gt;Branch -->
<g id="edge1" class="edge"><title>ActiveRecord::Base&#45;&gt;Branch</title>
<path fill="none" stroke="black" d="M1089.07,-390.21C1071.97,-382.004 1049.84,-372.725 1029,-368 860.642,-329.832 406.671,-410.652 253,-332 225.813,-318.085 202.424,-295.693 183.249,-271.835"/>
</g>
<!-- ActiveRecord::Base&#45;&gt;ContractPayroll -->
<g id="edge2" class="edge"><title>ActiveRecord::Base&#45;&gt;ContractPayroll</title>
<path fill="none" stroke="black" d="M1088.61,-390.217C1071.56,-382.121 1049.62,-372.945 1029,-368 919.812,-341.81 624.784,-383.49 525,-332 489.042,-313.445 459.049,-280.778 436.46,-249.38"/>
</g>
<!-- ActiveRecord::Base&#45;&gt;User -->
<g id="edge3" class="edge"><title>ActiveRecord::Base&#45;&gt;User</title>
<path fill="none" stroke="black" d="M1086.23,-390.362C1069.42,-382.8 1048.43,-374.071 1029,-368 954.455,-344.702 925.75,-369.056 857,-332 853.87,-330.313 850.76,-328.549 847.673,-326.714"/>
</g>
<!-- ActiveRecord::Base&#45;&gt;PayHead -->
<g id="edge4" class="edge"><title>ActiveRecord::Base&#45;&gt;PayHead</title>
<path fill="none" stroke="black" d="M1109.58,-388.812C1092.92,-358.415 1057.33,-293.493 1028.94,-241.699"/>
</g>
<!-- ActiveRecord::Base&#45;&gt;Payroll -->
<g id="edge5" class="edge"><title>ActiveRecord::Base&#45;&gt;Payroll</title>
<path fill="none" stroke="black" d="M1128.42,-388.812C1146.75,-355.364 1188,-280.115 1217.36,-226.551"/>
</g>
<!-- ActiveRecord::Base&#45;&gt;Account -->
<g id="edge6" class="edge"><title>ActiveRecord::Base&#45;&gt;Account</title>
<path fill="none" stroke="black" d="M1189.88,-398.078C1245.63,-389.132 1323.27,-370.447 1381,-332 1405.05,-315.983 1426.73,-294.139 1445.22,-271.589"/>
</g>
<!-- ActiveRecord::Base&#45;&gt;Transection -->
<g id="edge7" class="edge"><title>ActiveRecord::Base&#45;&gt;Transection</title>
<path fill="none" stroke="black" d="M1197.2,-402.027C1324.2,-394.416 1568.6,-374.6 1643,-332 1682.84,-309.19 1715.1,-269.091 1737.64,-234.135"/>
</g>
<!-- ActiveRecord::Base&#45;&gt;Factory -->
<g id="edge8" class="edge"><title>ActiveRecord::Base&#45;&gt;Factory</title>
<path fill="none" stroke="black" d="M1200.17,-405.881C1375.49,-404.425 1783.56,-394.235 1905,-332 1932.92,-317.695 1957.79,-295.473 1978.69,-271.924"/>
</g>
</g>
</svg>
