<?xml version="1.0" encoding="UTF-8" standalone="no"?>
<!DOCTYPE svg PUBLIC "-//W3C//DTD SVG 1.1//EN"
 "http://www.w3.org/Graphics/SVG/1.1/DTD/svg11.dtd">
<!-- Generated by graphviz version 2.38.0 (20140413.2041)
 -->
<!-- Title: models_diagram Pages: 1 -->
<svg width="813pt" height="158pt"
 viewBox="0.00 0.00 813.09 158.00" xmlns="http://www.w3.org/2000/svg" xmlns:xlink="http://www.w3.org/1999/xlink">
<g id="graph0" class="graph" transform="scale(1 1) rotate(0) translate(4 154)">
<title>models_diagram</title>
<polygon fill="none" stroke="none" points="-4,4 -4,-154 809.093,-154 809.093,4 -4,4"/>
<!-- _diagram_info -->
<g id="node1" class="node"><title>_diagram_info</title>
<text text-anchor="start" x="101.397" y="-135.6" font-family="Times,serif" font-size="13.00">Models diagram</text>
<text text-anchor="start" x="101.397" y="-121.6" font-family="Times,serif" font-size="13.00">Date: Oct 24 2015 &#45; 12:08</text>
<text text-anchor="start" x="101.397" y="-107.6" font-family="Times,serif" font-size="13.00">Migration version: 20151024065353</text>
<text text-anchor="start" x="101.397" y="-93.6" font-family="Times,serif" font-size="13.00">Generated by RailRoady 1.4.0</text>
<text text-anchor="start" x="101.397" y="-79.6" font-family="Times,serif" font-size="13.00">http://railroady.prestonlee.com</text>
</g>
<!-- Branch -->
<g id="node2" class="node"><title>Branch</title>
<ellipse fill="none" stroke="black" cx="36.3968" cy="-18" rx="36.2938" ry="18"/>
<text text-anchor="middle" x="36.3968" y="-14.3" font-family="Times,serif" font-size="14.00">Branch</text>
</g>
<!-- ContractPayroll -->
<g id="node3" class="node"><title>ContractPayroll</title>
<ellipse fill="none" stroke="black" cx="157.397" cy="-18" rx="66.0889" ry="18"/>
<text text-anchor="middle" x="157.397" y="-14.3" font-family="Times,serif" font-size="14.00">ContractPayroll</text>
</g>
<!-- User -->
<g id="node4" class="node"><title>User</title>
<ellipse fill="none" stroke="black" cx="269.397" cy="-18" rx="27.0966" ry="18"/>
<text text-anchor="middle" x="269.397" y="-14.3" font-family="Times,serif" font-size="14.00">User</text>
</g>
<!-- PayHead -->
<g id="node5" class="node"><title>PayHead</title>
<ellipse fill="none" stroke="black" cx="357.397" cy="-18" rx="42.4939" ry="18"/>
<text text-anchor="middle" x="357.397" y="-14.3" font-family="Times,serif" font-size="14.00">PayHead</text>
</g>
<!-- Payroll -->
<g id="node6" class="node"><title>Payroll</title>
<ellipse fill="none" stroke="black" cx="454.397" cy="-18" rx="36.2938" ry="18"/>
<text text-anchor="middle" x="454.397" y="-14.3" font-family="Times,serif" font-size="14.00">Payroll</text>
</g>
<!-- Account -->
<g id="node7" class="node"><title>Account</title>
<ellipse fill="none" stroke="black" cx="549.397" cy="-18" rx="40.0939" ry="18"/>
<text text-anchor="middle" x="549.397" y="-14.3" font-family="Times,serif" font-size="14.00">Account</text>
</g>
<!-- Transection -->
<g id="node8" class="node"><title>Transection</title>
<ellipse fill="none" stroke="black" cx="659.397" cy="-18" rx="51.9908" ry="18"/>
<text text-anchor="middle" x="659.397" y="-14.3" font-family="Times,serif" font-size="14.00">Transection</text>
</g>
<!-- Factory -->
<g id="node9" class="node"><title>Factory</title>
<ellipse fill="none" stroke="black" cx="767.397" cy="-18" rx="37.8943" ry="18"/>
<text text-anchor="middle" x="767.397" y="-14.3" font-family="Times,serif" font-size="14.00">Factory</text>
</g>
<!-- ActiveRecord::Base -->
<g id="node10" class="node"><title>ActiveRecord::Base</title>
<ellipse fill="none" stroke="black" cx="406.397" cy="-111" rx="81.4863" ry="18"/>
<text text-anchor="middle" x="406.397" y="-107.3" font-family="Times,serif" font-size="14.00">ActiveRecord::Base</text>
</g>
<!-- ActiveRecord::Base&#45;&gt;Branch -->
<g id="edge1" class="edge"><title>ActiveRecord::Base&#45;&gt;Branch</title>
<path fill="none" stroke="black" d="M374.599,-94.3012C357.678,-86.535 336.305,-77.6404 316.397,-72 215.158,-43.3173 184.262,-62.3714 82.3968,-36 76.2975,-34.421 69.8807,-32.3344 63.8396,-30.1655"/>
</g>
<!-- ActiveRecord::Base&#45;&gt;ContractPayroll -->
<g id="edge2" class="edge"><title>ActiveRecord::Base&#45;&gt;ContractPayroll</title>
<path fill="none" stroke="black" d="M371.604,-94.5648C355.01,-87.3955 334.806,-78.9424 316.397,-72 277.192,-57.2148 231.784,-42.2934 199.556,-32.0672"/>
</g>
<!-- ActiveRecord::Base&#45;&gt;User -->
<g id="edge3" class="edge"><title>ActiveRecord::Base&#45;&gt;User</title>
<path fill="none" stroke="black" d="M381.904,-93.731C354.966,-75.8381 312.283,-47.4863 287.969,-31.3363"/>
</g>
<!-- ActiveRecord::Base&#45;&gt;PayHead -->
<g id="edge4" class="edge"><title>ActiveRecord::Base&#45;&gt;PayHead</title>
<path fill="none" stroke="black" d="M397.18,-92.8836C388.364,-76.5113 375.153,-51.9753 366.406,-35.7322"/>
</g>
<!-- ActiveRecord::Base&#45;&gt;Payroll -->
<g id="edge5" class="edge"><title>ActiveRecord::Base&#45;&gt;Payroll</title>
<path fill="none" stroke="black" d="M415.425,-92.8836C424.061,-76.5113 437.003,-51.9753 445.571,-35.7322"/>
</g>
<!-- ActiveRecord::Base&#45;&gt;Account -->
<g id="edge6" class="edge"><title>ActiveRecord::Base&#45;&gt;Account</title>
<path fill="none" stroke="black" d="M431.962,-93.731C458.955,-76.5538 501.095,-49.7377 526.876,-33.3314"/>
</g>
<!-- ActiveRecord::Base&#45;&gt;Transection -->
<g id="edge7" class="edge"><title>ActiveRecord::Base&#45;&gt;Transection</title>
<path fill="none" stroke="black" d="M447.046,-95.3793C496.214,-77.6943 578.145,-48.225 624.55,-31.5338"/>
</g>
<!-- ActiveRecord::Base&#45;&gt;Factory -->
<g id="edge8" class="edge"><title>ActiveRecord::Base&#45;&gt;Factory</title>
<path fill="none" stroke="black" d="M464.509,-98.4089C527.938,-85.2707 632.226,-62.2395 720.397,-36 726.385,-34.218 732.722,-32.0936 738.739,-29.9604"/>
</g>
</g>
</svg>
